<svg width="56" height="16" viewBox="0 0 56 16" fill="none" xmlns="http://www.w3.org/2000/svg">
<path d="M0.96 15V0.84H4.68V12H10.44V15H0.96ZM25.0678 7.92C25.0678 12.64 22.0478 15.2 18.2278 15.2C14.3678 15.2 11.3678 12.62 11.3878 7.92C11.3678 3.22 14.3678 0.66 18.2278 0.68C22.0478 0.66 25.0678 3.22 25.0678 7.92ZM15.1878 7.92C15.1878 10.54 16.2678 11.94 18.2278 11.96C20.1678 11.94 21.2278 10.54 21.2278 7.92C21.2278 5.32 20.1678 3.9 18.2278 3.92C16.2678 3.9 15.1878 5.32 15.1878 7.92ZM36.0584 5.52C35.7984 4.5 34.9584 3.9 33.6984 3.92C31.7384 3.9 30.5784 5.38 30.5784 7.92C30.5784 10.46 31.6584 11.94 33.6984 11.96C35.4584 11.94 36.3784 11.1 36.3784 9.8H33.7784V7.16H39.9784V9.08C39.9784 12.92 37.3384 15.2 33.6584 15.2C29.5584 15.2 26.7584 12.42 26.7784 7.96C26.7584 3.3 29.8184 0.66 33.6184 0.68C36.9584 0.66 39.5184 2.68 39.8184 5.52H36.0584ZM55.4194 7.92C55.4194 12.64 52.3994 15.2 48.5794 15.2C44.7194 15.2 41.7194 12.62 41.7394 7.92C41.7194 3.22 44.7194 0.66 48.5794 0.68C52.3994 0.66 55.4194 3.22 55.4194 7.92ZM45.5394 7.92C45.5394 10.54 46.6194 11.94 48.5794 11.96C50.5194 11.94 51.5794 10.54 51.5794 7.92C51.5794 5.32 50.5194 3.9 48.5794 3.92C46.6194 3.9 45.5394 5.32 45.5394 7.92Z" fill="black"/>
</svg>
